<svg width="33" height="32" viewBox="0 0 33 32" fill="none" xmlns="http://www.w3.org/2000/svg">
<path d="M21.4567 4.03625C20.2404 2.72313 18.5417 2 16.6667 2C14.7817 2 13.0773 2.71875 11.8667 4.02375C10.6429 5.34312 10.0467 7.13625 10.1867 9.0725C10.4642 12.8925 13.3711 16 16.6667 16C19.9623 16 22.8642 12.8931 23.1461 9.07375C23.2879 7.155 22.6879 5.36563 21.4567 4.03625ZM27.6667 30H5.66669C5.37873 30.0037 5.09356 29.9433 4.83192 29.8229C4.57028 29.7026 4.33876 29.5254 4.15419 29.3044C3.74794 28.8188 3.58419 28.1556 3.70544 27.485C4.23294 24.5588 5.87919 22.1006 8.46669 20.375C10.7654 18.8431 13.6773 18 16.6667 18C19.6561 18 22.5679 18.8438 24.8667 20.375C27.4542 22.1 29.1004 24.5581 29.6279 27.4844C29.7492 28.155 29.5854 28.8181 29.1792 29.3037C28.9947 29.5249 28.7632 29.7022 28.5015 29.8226C28.2399 29.9431 27.9547 30.0037 27.6667 30Z" fill="#191919" fill-opacity="0.3"/>
</svg>
