<svg width="33" height="32" viewBox="0 0 33 32" fill="none" xmlns="http://www.w3.org/2000/svg">
<path d="M8.66668 24.764C11.608 24.764 14 22.372 14 19.4307V5.904L26 10.2667V20.1733C25.1932 19.6926 24.2725 19.4362 23.3333 19.4307C20.392 19.4307 18 21.8227 18 24.764C18 27.7053 20.392 30.0973 23.3333 30.0973C26.2747 30.0973 28.6667 27.7053 28.6667 24.764V9.33333C28.6669 9.05977 28.5827 8.79279 28.4258 8.56876C28.2688 8.34473 28.0465 8.17453 27.7893 8.08133L13.1227 2.748C12.9213 2.67439 12.7052 2.65047 12.4926 2.67827C12.2801 2.70606 12.0774 2.78475 11.9017 2.90765C11.7261 3.03055 11.5827 3.19403 11.4837 3.3842C11.3848 3.57438 11.3332 3.78562 11.3333 4V14.84C10.5265 14.3593 9.60586 14.1029 8.66668 14.0973C5.72534 14.0973 3.33334 16.4893 3.33334 19.4307C3.33334 22.372 5.72534 24.764 8.66668 24.764Z" fill="#191919" fill-opacity="0.3"/>
</svg>
