<svg width="33" height="32" viewBox="0 0 33 32" fill="none" xmlns="http://www.w3.org/2000/svg">
<g clip-path="url(#clip0_18171_220)">
<path d="M16.6667 2.66666C24.0307 2.66666 30 8.63599 30 16C30 23.364 24.0307 29.3333 16.6667 29.3333C9.30268 29.3333 3.33334 23.364 3.33334 16C3.33334 8.63599 9.30268 2.66666 16.6667 2.66666ZM16.6667 7.99999C16.3131 7.99999 15.9739 8.14047 15.7239 8.39051C15.4738 8.64056 15.3333 8.9797 15.3333 9.33332V16C15.3334 16.3536 15.4739 16.6927 15.724 16.9427L19.724 20.9427C19.9755 21.1855 20.3123 21.3199 20.6619 21.3169C21.0115 21.3138 21.3459 21.1736 21.5931 20.9264C21.8403 20.6792 21.9805 20.3448 21.9836 19.9952C21.9866 19.6456 21.8522 19.3088 21.6093 19.0573L18 15.448V9.33332C18 8.9797 17.8595 8.64056 17.6095 8.39051C17.3594 8.14047 17.0203 7.99999 16.6667 7.99999Z" fill="#191919" fill-opacity="0.3"/>
</g>
<defs>
<clipPath id="clip0_18171_220">
<rect width="32" height="32" fill="white" transform="translate(0.666687)"/>
</clipPath>
</defs>
</svg>
